# xmcd
#
# Track frame offsets:
#	150
#	18305
#	38828
#	57433
#	72333
#	83390
#	97985
#	119105
#	138353
#	160578
#
# Disc length: 2560 seconds
#
# Revision: 1
# Processed by: cddbd v1.4PL0 Copyright (c) Steve Scherf et al.
# Submitted via: audiograbber 1.82.01
#
DISCID=7b09fe0a
DTITLE=Josh and Die Emotionen - Alarm
DYEAR=1993
DGENRE=Austro Rock
TTITLE0=Alarm
TTITLE1=Gut Gut
TTITLE2=Die Würfel sind gefallen
TTITLE3=Lieb Heimatland
TTITLE4=Manchmoi
TTITLE5=Sex
TTITLE6=Madame
TTITLE7=Moneten
TTITLE8=Zündet die Lichter an
TTITLE9=Aquarius
EXTD=
EXTT0=
EXTT1=
EXTT2=
EXTT3=
EXTT4=
EXTT5=
EXTT6=
EXTT7=
EXTT8=
EXTT9=
PLAYORDER=
